<?xml version="1.0" encoding="UTF-8"?>
<svg xmlns="http://www.w3.org/2000/svg" xmlns:xlink="http://www.w3.org/1999/xlink" width="64px" height="64px" viewBox="0 0 64 64" version="1.1">
    <g id="surface1">
        <path style=" stroke:none;fill-rule:nonzero;fill:rgb(0%,0%,0%);fill-opacity:1;" d="M 0 64 L 0 0 L 64 0 L 64 64 Z M 29.507812 35.992188 C 32.609375 40.507812 35.695312 44.984375 38.75 49.476562 C 38.992188 49.890625 39.445312 50.132812 39.921875 50.09375 C 42.960938 50.0625 46 50.078125 49.039062 50.078125 C 49.234375 50.078125 49.429688 50.054688 49.734375 50.039062 L 35.382812 29.140625 L 48.601562 13.757812 C 48.25 13.78125 47.898438 13.78125 47.546875 13.757812 C 46.164062 13.578125 45.164062 13.96875 44.21875 15.15625 C 41.835938 18.148438 39.265625 21 36.765625 23.898438 C 35.859375 24.953125 34.9375 26 34.007812 27.078125 C 33.84375 26.867188 33.726562 26.757812 33.640625 26.625 C 30.828125 22.53125 28.03125 18.4375 25.234375 14.34375 C 24.945312 13.929688 24.65625 13.742188 24.132812 13.75 C 21.070312 13.773438 18 13.757812 14.9375 13.765625 C 14.742188 13.765625 14.554688 13.804688 14.320312 13.828125 C 14.460938 14.0625 14.546875 14.21875 14.65625 14.375 C 18.992188 20.6875 23.328125 27.007812 27.679688 33.3125 C 28.0625 33.859375 27.976562 34.15625 27.578125 34.59375 C 26.398438 35.898438 25.265625 37.242188 24.125 38.578125 C 21.625 41.476562 19.125 44.382812 16.625 47.289062 C 15.859375 48.179688 15.109375 49.078125 14.257812 50.078125 C 14.8125 50.078125 15.1875 50.03125 15.554688 50.085938 C 16.820312 50.273438 17.6875 49.828125 18.523438 48.804688 C 20.921875 45.84375 23.445312 43 25.921875 40.109375 C 27.101562 38.742188 28.289062 37.382812 29.507812 35.992188 Z M 29.507812 35.992188 "/>
        <path style=" stroke:none;fill-rule:nonzero;fill:rgb(100%,100%,100%);fill-opacity:1;" d="M 29.507812 35.992188 C 28.289062 37.382812 27.109375 38.742188 25.921875 40.117188 C 23.445312 42.992188 20.921875 45.851562 18.523438 48.804688 C 17.6875 49.835938 16.820312 50.273438 15.554688 50.085938 C 15.1875 50.03125 14.8125 50.078125 14.257812 50.078125 C 15.109375 49.078125 15.859375 48.1875 16.625 47.296875 C 19.125 44.390625 21.625 41.484375 24.125 38.578125 C 25.265625 37.25 26.398438 35.90625 27.578125 34.601562 C 27.976562 34.15625 28.054688 33.859375 27.679688 33.320312 C 23.320312 27.015625 18.976562 20.703125 14.65625 14.375 C 14.546875 14.226562 14.460938 14.0625 14.320312 13.828125 C 14.5625 13.804688 14.742188 13.757812 14.9375 13.757812 C 18 13.757812 21.070312 13.773438 24.132812 13.742188 C 24.65625 13.742188 24.945312 13.929688 25.234375 14.34375 C 28.023438 18.4375 30.828125 22.53125 33.640625 26.617188 C 33.726562 26.742188 33.835938 26.859375 34.007812 27.070312 C 34.9375 25.992188 35.859375 24.945312 36.765625 23.890625 C 39.265625 20.992188 41.835938 18.140625 44.21875 15.148438 C 45.164062 13.960938 46.164062 13.570312 47.546875 13.75 C 47.898438 13.773438 48.25 13.773438 48.601562 13.75 L 35.382812 29.132812 L 49.734375 50.03125 C 49.429688 50.046875 49.234375 50.070312 49.039062 50.070312 C 45.992188 50.070312 42.953125 50.054688 39.914062 50.085938 C 39.4375 50.125 38.984375 49.882812 38.75 49.46875 C 35.695312 44.984375 32.609375 40.507812 29.507812 35.992188 Z M 18.546875 16.15625 C 19.59375 17.671875 20.570312 19.085938 21.546875 20.492188 C 27.8125 29.445312 34.070312 38.398438 40.335938 47.359375 C 40.476562 47.554688 40.71875 47.8125 40.914062 47.820312 C 42.382812 47.859375 43.859375 47.84375 45.414062 47.84375 C 45.28125 47.601562 45.21875 47.453125 45.125 47.328125 C 37.976562 37.085938 30.820312 26.851562 23.65625 16.609375 C 23.523438 16.414062 23.265625 16.1875 23.0625 16.179688 C 21.601562 16.140625 20.148438 16.15625 18.546875 16.15625 Z M 18.546875 16.15625 "/>
        <path style=" stroke:none;fill-rule:nonzero;fill:rgb(0%,0%,0%);fill-opacity:1;" d="M 18.546875 16.15625 C 20.148438 16.15625 21.601562 16.140625 23.0625 16.179688 C 23.265625 16.179688 23.523438 16.414062 23.65625 16.609375 C 30.820312 26.84375 37.976562 37.078125 45.117188 47.320312 C 45.210938 47.453125 45.28125 47.59375 45.40625 47.835938 C 43.851562 47.835938 42.382812 47.851562 40.90625 47.8125 C 40.710938 47.8125 40.46875 47.554688 40.335938 47.351562 C 34.0625 38.40625 27.796875 29.453125 21.539062 20.492188 C 20.570312 19.085938 19.59375 17.679688 18.546875 16.15625 Z M 18.546875 16.15625 "/>
    </g>
</svg>
