<?xml version="1.0" encoding="UTF-8"?>
<!DOCTYPE svg PUBLIC "-//W3C//DTD SVG 1.1//EN" "http://www.w3.org/Graphics/SVG/1.1/DTD/svg11.dtd">
<svg xmlns="http://www.w3.org/2000/svg" version="1.1" width="2184px" height="1776px" style="shape-rendering:geometricPrecision; text-rendering:geometricPrecision; image-rendering:optimizeQuality; fill-rule:evenodd; clip-rule:evenodd" xmlns:xlink="http://www.w3.org/1999/xlink">
<g><path style="opacity:0.995" fill="#000000" d="M 1063.5,-0.5 C 1075.5,-0.5 1087.5,-0.5 1099.5,-0.5C 1166.97,2.53302 1231.64,17.8664 1293.5,45.5C 1294.63,47.0745 1294.8,48.7412 1294,50.5C 1260.79,142.029 1201.96,211.863 1117.5,260C 1064.29,289.513 1007.29,306.513 946.5,311C 886.844,312.122 827.177,312.622 767.5,312.5C 714.833,312.167 662.167,311.833 609.5,311.5C 669.439,176.393 768.439,82.5598 906.5,30C 957.463,12.0398 1009.8,1.87318 1063.5,-0.5 Z"/></g>
<g><path style="opacity:0.995" fill="#000000" d="M 1350.5,77.5 C 1352.31,77.4914 1353.98,77.9914 1355.5,79C 1479.07,159.853 1555.57,273.02 1585,418.5C 1588.65,437.018 1590.65,455.685 1591,474.5C 1557.32,525.516 1514.48,567.016 1462.5,599C 1352.39,666.577 1236.73,677.577 1115.5,632C 1105.75,628.195 1096.09,624.195 1086.5,620C 1174.91,439.344 1262.91,258.511 1350.5,77.5 Z"/></g>
<g><path style="opacity:0.995" fill="#000000" d="M 911.5,363.5 C 966.866,360.384 1020.2,369.218 1071.5,390C 1079.5,394 1087.5,398 1095.5,402C 1097.33,402.899 1098.66,404.233 1099.5,406C 1009.62,590.259 919.62,774.426 829.5,958.5C 707.523,887.652 626.689,784.318 587,648.5C 582.376,631.004 578.543,613.337 575.5,595.5C 619.74,496.096 692.74,426.929 794.5,388C 832.502,374.368 871.502,366.201 911.5,363.5 Z"/></g>
<g><path style="opacity:0.994" fill="#000000" d="M 1310.5,711.5 C 1382.5,711.333 1454.5,711.5 1526.5,712C 1535.19,712.168 1543.85,712.668 1552.5,713.5C 1499.82,833.681 1414.15,921.847 1295.5,978C 1166.84,1034.41 1036.18,1039.41 903.5,993C 898.154,991.219 892.987,989.053 888,986.5C 924.437,873.551 996.937,792.717 1105.5,744C 1144.92,727.562 1185.92,717.562 1228.5,714C 1255.99,712.995 1283.32,712.162 1310.5,711.5 Z"/></g>
<g><path style="opacity:0.991" fill="#000000" d="M 1090.5,1775.5 C 1077.83,1775.5 1065.17,1775.5 1052.5,1775.5C 964.987,1766.15 917.82,1717.48 911,1629.5C 910.5,1497.5 910.333,1365.5 910.5,1233.5C 936.5,1233.5 962.5,1233.5 988.5,1233.5C 988.5,1276.83 988.5,1320.17 988.5,1363.5C 1042.5,1363.5 1096.5,1363.5 1150.5,1363.5C 1150.5,1387.17 1150.5,1410.83 1150.5,1434.5C 1096.5,1434.5 1042.5,1434.5 988.5,1434.5C 988.333,1497.83 988.5,1561.17 989,1624.5C 992.55,1675.88 1020.05,1702.22 1071.5,1703.5C 1097.55,1704.33 1119.39,1695.33 1137,1676.5C 1142.95,1668.43 1147.45,1659.6 1150.5,1650C 1176.83,1649.5 1203.16,1649.33 1229.5,1649.5C 1219.87,1714.97 1182.87,1755.47 1118.5,1771C 1109.06,1772.75 1099.73,1774.25 1090.5,1775.5 Z"/></g>
<g><path style="opacity:0.989" fill="#000000" d="M 2183.5,1649.5 C 2183.5,1650.17 2183.5,1650.83 2183.5,1651.5C 2168.04,1727.29 2121.71,1768.62 2044.5,1775.5C 2031.5,1775.5 2018.5,1775.5 2005.5,1775.5C 1915.67,1765.5 1868.51,1715.17 1864,1624.5C 1863.5,1494.17 1863.33,1363.83 1863.5,1233.5C 1889.5,1233.5 1915.5,1233.5 1941.5,1233.5C 1941.5,1276.83 1941.5,1320.17 1941.5,1363.5C 1995.83,1363.5 2050.17,1363.5 2104.5,1363.5C 2104.5,1387.17 2104.5,1410.83 2104.5,1434.5C 2050.17,1434.5 1995.83,1434.5 1941.5,1434.5C 1941.04,1500.19 1941.54,1565.85 1943,1631.5C 1949.72,1678.89 1977.06,1702.89 2025,1703.5C 2051.44,1704.25 2073.44,1694.92 2091,1675.5C 2096.22,1667.72 2100.39,1659.39 2103.5,1650.5C 2130.16,1649.5 2156.83,1649.17 2183.5,1649.5 Z"/></g>
<g><path style="opacity:0.987" fill="#000000" d="M 608.5,1350.5 C 699.135,1347.88 767.301,1385.22 813,1462.5C 826.432,1488.56 834.098,1516.23 836,1545.5C 836.5,1618.83 836.667,1692.17 836.5,1765.5C 811.167,1765.5 785.833,1765.5 760.5,1765.5C 760.833,1749.49 760.499,1733.49 759.5,1717.5C 704.825,1759.67 643.491,1773.83 575.5,1760C 512.988,1744.68 465.822,1709.18 434,1653.5C 404.603,1593.92 402.936,1533.59 429,1472.5C 466.594,1399.43 526.427,1358.76 608.5,1350.5 Z M 615.5,1418.5 C 671.074,1417.86 713.574,1440.86 743,1487.5C 765.56,1530.5 766.226,1573.83 745,1617.5C 721.724,1658.58 686.557,1682.41 639.5,1689C 579.899,1692.95 534.399,1669.79 503,1619.5C 476.587,1565.61 481.587,1514.95 518,1467.5C 544.04,1438.23 576.54,1421.9 615.5,1418.5 Z"/></g>
<g><path style="opacity:0.987" fill="#000000" d="M 1468.5,1775.5 C 1454.83,1775.5 1441.17,1775.5 1427.5,1775.5C 1388.41,1773.08 1353.41,1759.92 1322.5,1736C 1296.31,1712.78 1282.64,1683.61 1281.5,1648.5C 1307.83,1648.5 1334.17,1648.5 1360.5,1648.5C 1361.92,1668.09 1371.26,1682.59 1388.5,1692C 1399.24,1697.47 1410.58,1701.14 1422.5,1703C 1443.28,1705.47 1463.95,1704.8 1484.5,1701C 1500.77,1697.38 1514.61,1689.54 1526,1677.5C 1534.33,1666.16 1537.33,1653.49 1535,1639.5C 1530.53,1625.69 1521.36,1616.53 1507.5,1612C 1498.7,1608.88 1489.7,1606.55 1480.5,1605C 1455.17,1601.33 1429.83,1597.67 1404.5,1594C 1380.65,1590.27 1357.98,1582.94 1336.5,1572C 1304.28,1552.4 1288.61,1523.57 1289.5,1485.5C 1290.99,1427.86 1318.32,1388.02 1371.5,1366C 1419.94,1348.85 1468.6,1348.19 1517.5,1364C 1554.92,1376.76 1581.42,1401.26 1597,1437.5C 1601.62,1450.44 1604.12,1463.77 1604.5,1477.5C 1578.83,1477.67 1553.16,1477.5 1527.5,1477C 1523.09,1452.21 1508.75,1436.21 1484.5,1429C 1456.83,1420.97 1429.49,1421.97 1402.5,1432C 1376.87,1443.44 1366.03,1462.94 1370,1490.5C 1372.95,1498.78 1378.11,1505.28 1385.5,1510C 1392.84,1513.84 1400.51,1516.84 1408.5,1519C 1443.83,1524.67 1479.16,1530.33 1514.5,1536C 1536.36,1540.28 1556.69,1548.28 1575.5,1560C 1603.08,1580 1616.08,1607.16 1614.5,1641.5C 1613.13,1698.08 1586.46,1737.58 1534.5,1760C 1513.11,1768.35 1491.11,1773.52 1468.5,1775.5 Z"/></g>
<g><path style="opacity:0.987" fill="#000000" d="M -0.5,1765.5 C -0.5,1743.5 -0.5,1721.5 -0.5,1699.5C 84.9663,1611.2 170.3,1522.7 255.5,1434C 174.167,1433.5 92.834,1433.33 11.5,1433.5C 11.5,1410.17 11.5,1386.83 11.5,1363.5C 128.167,1363.5 244.833,1363.5 361.5,1363.5C 361.667,1384.84 361.5,1406.17 361,1427.5C 275.864,1516.97 190.364,1606.14 104.5,1695C 192.833,1695.5 281.166,1695.67 369.5,1695.5C 369.5,1718.83 369.5,1742.17 369.5,1765.5C 246.167,1765.5 122.833,1765.5 -0.5,1765.5 Z"/></g>
<g><path style="opacity:0.988" fill="#000000" d="M 1693.5,1363.5 C 1719.5,1363.5 1745.5,1363.5 1771.5,1363.5C 1771.5,1497.5 1771.5,1631.5 1771.5,1765.5C 1745.5,1765.5 1719.5,1765.5 1693.5,1765.5C 1693.5,1631.5 1693.5,1497.5 1693.5,1363.5 Z"/></g>
</svg>
